<svg id="svg" version="1.1" width="400" height="400" viewBox="0 0 400 400" xmlns="http://www.w3.org/2000/svg" xmlns:xlink="http://www.w3.org/1999/xlink" ><g id="svgg"><path id="path0" d="M305.126 0.958 C 305.093 0.991,303.484 1.040,301.552 1.066 C 298.482 1.107,293.896 1.450,291.243 1.836 C 290.776 1.904,290.177 1.989,289.913 2.025 C 289.648 2.060,289.255 2.123,289.039 2.165 C 285.439 2.858,284.317 3.088,283.755 3.249 C 283.585 3.297,283.202 3.394,282.402 3.590 C 282.186 3.643,281.820 3.725,281.589 3.773 C 281.358 3.820,281.024 3.937,280.846 4.032 C 280.669 4.127,280.524 4.161,280.524 4.109 C 280.524 4.056,280.247 4.128,279.909 4.270 C 279.572 4.411,279.257 4.530,279.211 4.534 C 279.165 4.538,279.107 4.547,279.083 4.555 C 279.059 4.562,278.921 4.593,278.777 4.623 C 278.214 4.741,276.060 5.469,275.895 5.598 C 275.799 5.673,275.681 5.736,275.633 5.737 C 275.585 5.738,275.325 5.824,275.054 5.927 C 274.784 6.029,274.488 6.114,274.397 6.114 C 274.306 6.114,273.859 6.279,273.404 6.481 C 272.510 6.879,272.094 7.065,270.480 7.786 C 268.345 8.741,263.588 11.186,263.057 11.602 C 262.913 11.715,262.500 11.959,262.140 12.144 C 261.779 12.330,261.485 12.542,261.485 12.616 C 261.485 12.690,261.411 12.751,261.321 12.751 C 261.183 12.751,258.257 14.635,257.729 15.064 C 257.461 15.282,255.666 16.638,255.126 17.031 C 254.862 17.223,254.469 17.537,254.254 17.729 C 254.038 17.921,253.598 18.275,253.275 18.515 C 252.952 18.755,252.475 19.148,252.215 19.389 C 251.956 19.629,251.210 20.297,250.559 20.873 C 248.113 23.038,243.742 27.570,241.659 30.102 C 241.371 30.452,240.978 30.921,240.786 31.145 C 240.594 31.368,240.279 31.768,240.087 32.034 C 239.895 32.300,239.620 32.661,239.476 32.836 C 239.332 33.012,239.096 33.327,238.952 33.537 C 238.808 33.747,238.513 34.128,238.297 34.383 C 238.081 34.638,237.904 34.900,237.904 34.966 C 237.904 35.031,237.805 35.188,237.684 35.315 C 237.432 35.580,235.406 38.599,235.303 38.864 C 235.265 38.960,235.068 39.273,234.866 39.560 C 234.449 40.149,234.204 40.555,233.807 41.310 C 233.655 41.598,233.179 42.463,232.748 43.231 C 232.005 44.556,231.647 45.279,230.627 47.511 C 230.386 48.039,230.115 48.610,230.026 48.779 C 229.936 48.949,229.738 49.457,229.584 49.910 C 229.431 50.362,229.117 51.142,228.888 51.643 C 228.659 52.144,228.472 52.661,228.472 52.792 C 228.472 52.923,228.377 53.125,228.262 53.240 C 228.147 53.355,228.117 53.450,228.196 53.450 C 228.275 53.450,228.242 53.568,228.122 53.712 C 228.003 53.856,227.963 53.974,228.035 53.974 C 228.106 53.974,228.067 54.092,227.948 54.236 C 227.828 54.380,227.789 54.498,227.860 54.498 C 227.932 54.498,227.893 54.616,227.773 54.760 C 227.653 54.904,227.614 55.022,227.686 55.022 C 227.757 55.022,227.718 55.140,227.598 55.284 C 227.479 55.428,227.429 55.546,227.487 55.546 C 227.545 55.546,227.438 55.939,227.249 56.419 C 227.060 56.900,226.946 57.293,226.996 57.293 C 227.046 57.293,227.009 57.438,226.914 57.615 C 226.819 57.792,226.702 58.126,226.653 58.357 C 226.604 58.588,226.437 59.288,226.282 59.913 C 226.126 60.537,225.963 61.245,225.919 61.485 C 225.875 61.725,225.766 62.157,225.676 62.445 C 225.532 62.911,225.337 64.078,224.801 67.686 C 223.871 73.950,223.871 83.038,224.802 89.345 C 225.316 92.824,225.532 94.120,225.676 94.585 C 225.766 94.873,225.879 95.306,225.927 95.546 C 225.976 95.786,226.103 96.336,226.210 96.769 C 226.457 97.767,226.547 98.150,226.655 98.673 C 226.703 98.904,226.819 99.238,226.914 99.416 C 227.009 99.593,227.048 99.738,227.001 99.738 C 226.954 99.738,227.100 100.229,227.326 100.830 C 227.552 101.430,227.745 101.980,227.755 102.052 C 227.794 102.336,227.863 102.557,228.071 103.057 C 228.171 103.297,228.308 103.748,228.375 104.059 C 228.443 104.370,228.571 104.670,228.660 104.724 C 228.748 104.779,228.821 104.951,228.821 105.106 C 228.821 105.688,231.522 111.548,232.748 113.624 C 233.088 114.201,233.477 114.909,233.611 115.199 C 233.746 115.488,234.138 116.135,234.483 116.636 C 234.827 117.136,235.109 117.627,235.109 117.725 C 235.109 117.823,235.188 117.904,235.284 117.904 C 235.380 117.904,235.459 117.988,235.459 118.091 C 235.459 118.287,236.416 119.749,236.804 120.143 C 236.929 120.270,237.031 120.432,237.031 120.504 C 237.031 120.575,237.169 120.785,237.339 120.971 C 237.508 121.158,237.959 121.742,238.341 122.271 C 239.124 123.356,239.159 123.402,239.697 124.053 C 239.912 124.313,240.284 124.776,240.524 125.082 C 242.141 127.142,246.880 132.066,249.251 134.148 C 249.853 134.677,250.521 135.266,250.737 135.459 C 251.639 136.263,252.808 137.216,253.076 137.365 C 253.233 137.453,253.402 137.575,253.450 137.635 C 253.498 137.696,253.812 137.937,254.148 138.170 C 254.485 138.403,254.912 138.733,255.098 138.904 C 255.285 139.074,255.495 139.214,255.566 139.214 C 255.637 139.214,255.799 139.317,255.926 139.442 C 256.249 139.760,258.294 141.135,258.446 141.135 C 258.514 141.135,258.813 141.315,259.110 141.534 C 259.407 141.754,259.847 142.033,260.087 142.154 C 260.328 142.276,260.838 142.560,261.223 142.786 C 262.448 143.506,266.399 145.434,267.860 146.024 C 268.052 146.102,268.497 146.291,268.847 146.445 C 269.198 146.599,269.595 146.725,269.729 146.725 C 269.864 146.725,270.048 146.791,270.140 146.872 C 270.309 147.022,272.388 147.740,272.988 147.855 C 273.171 147.891,273.680 148.041,274.119 148.191 C 274.558 148.340,275.098 148.499,275.319 148.545 C 275.540 148.591,275.878 148.666,276.070 148.712 C 276.436 148.800,279.833 149.498,280.437 149.610 C 285.012 150.452,295.405 150.588,300.853 149.877 C 302.478 149.665,305.093 149.233,306.201 148.995 C 306.633 148.902,307.183 148.787,307.424 148.739 C 307.664 148.692,308.371 148.532,308.996 148.384 C 309.620 148.236,310.320 148.074,310.551 148.023 C 310.782 147.972,311.116 147.853,311.293 147.758 C 311.471 147.664,311.616 147.623,311.616 147.668 C 311.616 147.753,314.896 146.687,315.590 146.377 C 315.969 146.207,316.422 146.021,317.249 145.698 C 319.177 144.942,322.320 143.356,323.970 142.305 C 324.377 142.046,324.748 141.834,324.795 141.834 C 324.910 141.834,327.541 140.059,327.820 139.794 C 327.941 139.677,328.354 139.406,328.737 139.191 C 329.119 138.976,329.432 138.736,329.432 138.658 C 329.432 138.579,329.516 138.515,329.619 138.515 C 329.721 138.515,330.055 138.331,330.361 138.106 C 333.984 135.439,336.901 135.651,338.602 138.706 C 339.464 140.253,340.320 142.252,340.530 143.208 C 340.575 143.413,340.652 143.758,340.702 143.974 C 340.752 144.190,340.834 144.642,340.885 144.978 C 340.936 145.314,341.010 145.687,341.050 145.806 C 341.540 147.265,341.488 157.928,340.967 162.795 C 340.409 168.000,339.724 172.690,339.130 175.371 C 339.077 175.611,338.991 176.083,338.939 176.419 C 338.888 176.755,338.774 177.266,338.687 177.555 C 338.599 177.843,338.486 178.295,338.434 178.559 C 338.266 179.423,338.176 179.803,337.724 181.572 C 337.479 182.533,337.243 183.476,337.200 183.668 C 337.122 184.020,336.718 185.414,336.366 186.550 C 336.262 186.886,336.158 187.240,336.137 187.336 C 336.030 187.806,334.122 193.485,333.993 193.718 C 333.911 193.865,333.788 194.237,333.721 194.545 C 333.653 194.853,333.525 195.150,333.436 195.205 C 333.348 195.260,333.275 195.425,333.275 195.573 C 333.275 195.721,333.149 196.129,332.995 196.480 C 332.841 196.831,332.655 197.275,332.582 197.467 C 332.304 198.194,332.086 198.724,331.610 199.825 C 331.341 200.450,330.971 201.314,330.789 201.747 C 330.270 202.979,329.950 203.647,327.689 208.210 C 325.631 212.363,325.323 212.949,323.679 215.841 C 323.253 216.592,322.715 217.559,322.483 217.991 C 322.252 218.424,321.756 219.238,321.381 219.802 C 321.006 220.365,320.699 220.868,320.699 220.920 C 320.699 220.972,320.514 221.258,320.289 221.556 C 320.064 221.853,319.848 222.175,319.809 222.271 C 319.770 222.367,318.873 223.731,317.817 225.301 C 316.760 226.872,315.817 228.284,315.721 228.438 C 315.624 228.593,315.448 228.826,315.328 228.957 C 315.207 229.088,315.109 229.249,315.109 229.314 C 315.109 229.379,314.912 229.661,314.672 229.940 C 314.432 230.219,314.236 230.499,314.236 230.562 C 314.236 230.625,314.095 230.829,313.922 231.015 C 313.653 231.306,312.120 233.324,311.015 234.841 C 310.829 235.097,310.554 235.452,310.404 235.630 C 310.254 235.808,309.979 236.162,309.793 236.416 C 309.606 236.670,309.331 237.021,309.181 237.196 C 309.031 237.372,308.672 237.808,308.384 238.167 C 308.096 238.525,307.703 238.998,307.511 239.216 C 307.319 239.435,306.886 239.949,306.550 240.359 C 306.214 240.768,305.742 241.319,305.502 241.582 C 305.262 241.846,304.633 242.553,304.105 243.154 C 300.709 247.015,297.015 250.691,292.333 254.870 C 290.949 256.106,290.730 256.297,289.855 257.031 C 289.397 257.415,288.846 257.889,288.631 258.084 C 288.416 258.280,287.984 258.633,287.671 258.870 C 286.662 259.633,285.168 260.850,284.629 261.348 C 284.341 261.615,284.058 261.833,284.001 261.833 C 283.943 261.834,283.734 261.972,283.536 262.140 C 283.339 262.308,283.005 262.563,282.795 262.707 C 282.585 262.852,282.243 263.106,282.036 263.272 C 281.829 263.438,281.581 263.636,281.485 263.712 C 281.389 263.788,280.799 264.196,280.175 264.620 C 279.550 265.043,278.940 265.489,278.818 265.611 C 278.696 265.733,278.284 266.008,277.901 266.224 C 277.518 266.439,277.205 266.679,277.205 266.757 C 277.205 266.835,277.087 266.900,276.943 266.900 C 276.799 266.900,276.680 266.959,276.679 267.031 C 276.677 267.103,276.207 267.437,275.633 267.773 C 275.060 268.109,274.589 268.443,274.588 268.515 C 274.586 268.587,274.467 268.646,274.323 268.646 C 274.179 268.646,274.061 268.725,274.061 268.821 C 274.061 268.917,273.982 268.996,273.885 268.996 C 273.788 268.996,273.332 269.251,272.872 269.563 C 271.523 270.479,271.370 270.573,271.048 270.680 C 270.880 270.737,270.742 270.839,270.742 270.906 C 270.742 270.974,270.408 271.205,270.000 271.420 C 269.592 271.634,269.022 271.962,268.734 272.147 C 268.445 272.333,268.013 272.582,267.773 272.701 C 267.392 272.889,265.557 273.943,264.803 274.407 C 264.315 274.708,261.175 276.373,258.079 277.973 C 256.307 278.888,251.075 281.315,248.646 282.347 C 248.262 282.510,247.751 282.728,247.511 282.831 C 246.530 283.252,245.119 283.835,244.585 284.041 C 243.544 284.442,242.403 284.910,242.090 285.064 C 241.943 285.136,241.571 285.251,241.263 285.319 C 240.955 285.386,240.658 285.514,240.603 285.603 C 240.548 285.692,240.351 285.764,240.164 285.764 C 239.832 285.764,239.825 285.994,239.825 296.929 L 239.825 308.094 240.480 307.917 C 240.841 307.820,241.210 307.669,241.301 307.582 C 241.393 307.495,241.589 307.423,241.738 307.423 C 241.887 307.422,242.234 307.304,242.509 307.160 C 242.784 307.017,243.099 306.897,243.208 306.894 C 243.317 306.890,243.721 306.736,244.105 306.550 C 244.489 306.365,244.903 306.210,245.024 306.207 C 245.146 306.204,245.381 306.129,245.548 306.041 C 246.156 305.720,247.132 305.328,247.321 305.328 C 247.427 305.328,247.887 305.162,248.343 304.961 C 248.798 304.759,249.328 304.534,249.520 304.460 C 249.712 304.386,250.085 304.237,250.349 304.128 C 250.614 304.019,251.026 303.852,251.266 303.755 C 251.507 303.659,251.900 303.502,252.140 303.406 C 253.208 302.979,253.557 302.831,253.840 302.687 C 254.007 302.602,254.228 302.533,254.332 302.533 C 254.435 302.533,254.967 302.326,255.513 302.074 C 256.060 301.821,256.703 301.535,256.943 301.438 C 257.508 301.209,258.295 300.880,260.175 300.087 C 261.619 299.478,262.258 299.200,264.192 298.341 C 264.624 298.148,265.332 297.834,265.764 297.642 C 266.197 297.450,266.924 297.130,267.380 296.931 C 267.836 296.733,268.603 296.384,269.083 296.158 C 269.563 295.931,270.546 295.471,271.266 295.135 C 278.288 291.860,286.745 287.597,291.528 284.920 C 292.057 284.624,292.803 284.218,293.188 284.018 C 293.572 283.817,294.201 283.461,294.585 283.225 C 294.969 282.990,295.520 282.673,295.808 282.522 C 296.096 282.371,296.646 282.057,297.031 281.826 C 297.415 281.594,297.926 281.307,298.166 281.189 C 298.406 281.070,298.917 280.775,299.301 280.534 C 300.377 279.858,300.670 279.681,301.048 279.481 C 301.240 279.379,301.633 279.141,301.921 278.952 C 302.210 278.763,302.603 278.537,302.795 278.450 C 302.987 278.363,303.537 278.026,304.017 277.701 C 304.498 277.376,305.186 276.957,305.546 276.769 C 305.906 276.581,306.201 276.366,306.201 276.292 C 306.201 276.218,306.276 276.157,306.368 276.157 C 306.528 276.157,307.635 275.478,308.071 275.112 C 308.187 275.014,308.324 274.934,308.375 274.934 C 308.426 274.934,308.985 274.581,309.616 274.148 C 310.248 273.716,310.838 273.362,310.928 273.362 C 311.018 273.362,311.092 273.284,311.092 273.188 C 311.092 273.092,311.210 273.013,311.354 273.013 C 311.498 273.013,311.616 272.934,311.616 272.838 C 311.616 272.742,311.734 272.664,311.878 272.664 C 312.022 272.664,312.140 272.585,312.140 272.489 C 312.140 272.393,312.258 272.314,312.402 272.314 C 312.546 272.314,312.664 272.236,312.664 272.140 C 312.664 272.044,312.782 271.965,312.926 271.965 C 313.070 271.965,313.188 271.886,313.188 271.790 C 313.188 271.694,313.306 271.616,313.450 271.616 C 313.594 271.616,313.712 271.556,313.712 271.482 C 313.712 271.409,313.865 271.272,314.052 271.177 C 314.435 270.982,316.372 269.683,316.507 269.531 C 316.555 269.476,316.948 269.196,317.380 268.908 C 317.812 268.620,318.318 268.247,318.505 268.079 C 318.691 267.910,318.901 267.773,318.972 267.773 C 319.044 267.773,319.207 267.667,319.336 267.538 C 319.465 267.409,319.884 267.104,320.266 266.860 C 320.648 266.616,321.157 266.252,321.397 266.050 C 321.982 265.559,321.992 265.552,323.493 264.455 C 324.214 263.929,324.892 263.419,325.000 263.321 C 325.109 263.224,325.375 263.026,325.592 262.882 C 325.810 262.738,326.232 262.424,326.531 262.184 C 326.830 261.943,327.153 261.687,327.249 261.613 C 327.345 261.540,327.630 261.304,327.881 261.089 C 328.133 260.874,328.548 260.549,328.803 260.365 C 329.058 260.181,329.458 259.867,329.691 259.666 C 329.924 259.466,330.364 259.105,330.668 258.865 C 331.353 258.323,332.147 257.665,332.668 257.205 C 332.885 257.013,333.398 256.581,333.808 256.245 C 334.217 255.908,334.730 255.476,334.947 255.284 C 335.165 255.092,335.755 254.581,336.260 254.148 C 336.764 253.716,337.428 253.127,337.736 252.838 C 338.043 252.550,338.953 251.725,339.758 251.004 C 341.660 249.302,350.129 240.837,351.705 239.063 C 352.377 238.308,353.122 237.477,353.362 237.218 C 353.603 236.959,354.153 236.329,354.585 235.818 C 355.017 235.307,355.528 234.711,355.721 234.494 C 355.913 234.277,356.306 233.810,356.594 233.457 C 356.882 233.103,357.275 232.637,357.467 232.421 C 357.659 232.205,358.013 231.765,358.253 231.443 C 358.493 231.122,358.827 230.695,358.995 230.495 C 359.745 229.601,359.955 229.338,360.273 228.904 C 360.459 228.649,360.828 228.192,361.092 227.888 C 361.356 227.585,361.788 227.022,362.052 226.638 C 362.317 226.253,362.675 225.782,362.850 225.590 C 363.024 225.397,363.452 224.808,363.802 224.279 C 364.151 223.751,364.521 223.233,364.623 223.129 C 364.726 223.024,365.122 222.474,365.505 221.906 C 365.888 221.338,366.240 220.834,366.289 220.786 C 366.337 220.738,366.612 220.345,366.900 219.913 C 367.188 219.480,367.483 219.100,367.555 219.068 C 367.627 219.036,367.686 218.899,367.686 218.763 C 367.686 218.627,367.764 218.515,367.860 218.515 C 367.956 218.515,368.035 218.404,368.035 218.268 C 368.035 218.132,368.099 217.994,368.178 217.962 C 368.381 217.880,369.782 215.778,369.782 215.555 C 369.782 215.454,369.860 215.371,369.956 215.371 C 370.052 215.371,370.131 215.292,370.131 215.195 C 370.131 215.098,370.406 214.627,370.742 214.148 C 371.079 213.670,371.354 213.233,371.354 213.178 C 371.354 213.122,371.550 212.819,371.790 212.505 C 372.031 212.190,372.227 211.880,372.227 211.816 C 372.227 211.752,372.534 211.248,372.908 210.697 C 373.283 210.145,373.774 209.354,374.000 208.937 C 374.226 208.521,374.582 207.892,374.791 207.540 C 375.001 207.188,375.296 206.664,375.448 206.376 C 375.599 206.087,375.916 205.537,376.151 205.153 C 376.386 204.769,376.741 204.140,376.938 203.755 C 377.136 203.371,377.730 202.271,378.259 201.310 C 379.582 198.904,382.365 193.161,383.929 189.607 C 384.140 189.127,384.426 188.479,384.563 188.168 C 385.091 186.975,385.483 186.012,386.112 184.367 C 386.369 183.694,386.682 182.908,386.808 182.620 C 387.009 182.160,387.245 181.575,387.336 181.310 C 387.353 181.262,387.419 181.085,387.482 180.917 C 387.546 180.749,387.650 180.474,387.714 180.306 C 387.778 180.138,387.843 179.961,387.860 179.913 C 387.876 179.865,387.981 179.604,388.093 179.334 C 388.205 179.063,388.297 178.745,388.297 178.626 C 388.297 178.508,388.391 178.316,388.507 178.201 C 388.622 178.086,388.652 177.991,388.572 177.991 C 388.493 177.991,388.507 177.893,388.603 177.773 C 388.759 177.578,390.532 172.355,390.663 171.703 C 390.692 171.559,390.728 171.441,390.742 171.441 C 390.757 171.441,390.796 171.323,390.828 171.179 C 390.860 171.035,391.008 170.582,391.157 170.172 C 391.306 169.763,391.418 169.409,391.406 169.386 C 391.395 169.364,391.468 169.070,391.568 168.734 C 392.117 166.904,392.327 166.159,392.399 165.782 C 392.443 165.552,392.562 165.112,392.664 164.803 C 392.765 164.495,392.886 164.075,392.931 163.868 C 392.976 163.662,393.052 163.336,393.100 163.144 C 393.148 162.952,393.227 162.638,393.275 162.445 C 393.323 162.253,393.402 161.939,393.450 161.747 C 393.498 161.555,393.576 161.240,393.624 161.048 C 393.890 159.987,394.262 158.364,394.345 157.904 C 394.389 157.664,394.465 157.330,394.516 157.163 C 394.566 156.996,394.646 156.642,394.693 156.377 C 394.740 156.112,394.975 154.952,395.214 153.799 C 395.453 152.646,395.720 151.271,395.807 150.742 C 395.894 150.214,396.007 149.585,396.058 149.345 C 396.268 148.363,396.330 147.995,396.424 147.162 C 396.478 146.681,396.560 146.092,396.605 145.852 C 396.650 145.611,396.718 145.250,396.756 145.048 C 396.794 144.847,396.880 144.257,396.946 143.738 C 397.012 143.219,397.097 142.559,397.134 142.271 C 397.172 141.983,397.250 141.354,397.308 140.873 C 397.365 140.393,397.440 139.803,397.473 139.563 C 397.505 139.323,397.582 138.498,397.643 137.729 C 397.705 136.961,397.785 136.214,397.823 136.070 C 397.861 135.926,397.936 135.140,397.991 134.323 C 398.046 133.507,398.124 132.603,398.165 132.314 C 398.206 132.026,398.287 130.886,398.346 129.782 C 398.405 128.677,398.485 127.380,398.524 126.900 C 398.563 126.419,398.624 122.843,398.660 118.952 C 398.719 112.528,398.674 110.496,398.356 105.328 C 398.179 102.450,397.513 95.638,397.298 94.498 C 397.252 94.258,397.175 93.707,397.125 93.275 C 396.888 91.211,396.839 90.864,396.678 90.131 C 396.583 89.699,396.431 88.834,396.339 88.210 C 396.079 86.434,395.116 81.775,394.498 79.301 C 394.450 79.109,394.371 78.795,394.323 78.603 C 394.128 77.823,394.040 77.450,393.966 77.099 C 393.924 76.897,393.774 76.406,393.633 76.008 C 393.493 75.610,393.415 75.284,393.460 75.284 C 393.505 75.284,393.427 75.009,393.286 74.672 C 393.146 74.336,393.062 74.061,393.100 74.061 C 393.139 74.061,393.060 73.797,392.925 73.474 C 392.790 73.151,392.645 72.697,392.603 72.465 C 392.531 72.067,391.037 67.466,390.797 66.900 C 390.735 66.755,390.672 66.598,390.655 66.550 C 390.639 66.502,390.534 66.242,390.422 65.971 C 390.310 65.701,390.218 65.405,390.218 65.314 C 390.218 65.223,390.146 65.012,390.058 64.845 C 389.725 64.216,389.170 62.879,389.170 62.707 C 389.170 62.609,389.103 62.392,389.021 62.225 C 388.865 61.906,388.467 60.993,388.071 60.041 C 387.264 58.103,383.981 51.570,382.959 49.869 C 382.729 49.485,382.483 49.052,382.413 48.908 C 382.344 48.764,382.067 48.320,381.799 47.922 C 381.530 47.524,381.310 47.138,381.310 47.065 C 381.310 46.992,381.114 46.675,380.873 46.360 C 380.633 46.045,380.437 45.751,380.437 45.707 C 380.437 45.639,378.631 42.909,378.215 42.349 C 378.140 42.247,378.000 42.043,377.904 41.894 C 377.340 41.023,376.769 40.214,376.484 39.885 C 376.304 39.678,376.039 39.335,375.895 39.123 C 375.751 38.911,375.380 38.452,375.070 38.102 C 374.760 37.753,374.504 37.420,374.502 37.362 C 374.500 37.304,374.321 37.052,374.105 36.802 C 373.889 36.552,373.515 36.099,373.275 35.795 C 372.716 35.086,371.910 34.138,371.354 33.534 C 371.114 33.273,370.328 32.407,369.607 31.610 C 367.936 29.760,364.127 25.949,362.367 24.367 C 361.620 23.694,360.795 22.948,360.535 22.707 C 360.275 22.467,359.729 21.996,359.323 21.659 C 358.916 21.323,358.394 20.891,358.163 20.699 C 357.932 20.507,357.536 20.192,357.282 20.000 C 357.029 19.808,356.487 19.376,356.078 19.039 C 355.669 18.703,355.159 18.310,354.944 18.166 C 354.728 18.022,354.398 17.773,354.209 17.612 C 354.020 17.452,353.418 17.019,352.871 16.651 C 352.325 16.284,351.852 15.924,351.820 15.852 C 351.787 15.779,351.686 15.721,351.594 15.721 C 351.502 15.721,351.258 15.563,351.052 15.371 C 350.845 15.179,350.456 14.924,350.186 14.805 C 349.915 14.685,349.694 14.528,349.694 14.455 C 349.694 14.383,349.610 14.323,349.508 14.323 C 349.406 14.323,349.064 14.127,348.749 13.886 C 348.434 13.646,348.118 13.450,348.045 13.450 C 347.973 13.450,347.666 13.273,347.363 13.057 C 346.805 12.659,346.189 12.294,345.240 11.797 C 344.952 11.646,344.087 11.167,343.319 10.733 C 341.995 9.985,341.432 9.706,338.952 8.567 C 338.376 8.302,337.375 7.838,336.729 7.536 C 336.082 7.234,335.472 6.987,335.372 6.987 C 335.273 6.987,335.055 6.914,334.888 6.825 C 334.580 6.661,334.029 6.446,333.712 6.367 C 333.616 6.343,333.301 6.231,333.013 6.119 C 332.725 6.006,332.482 5.939,332.472 5.970 C 332.463 6.001,332.345 5.938,332.210 5.831 C 331.941 5.617,329.404 4.751,328.638 4.612 C 328.372 4.564,328.023 4.454,327.860 4.367 C 327.698 4.280,327.376 4.168,327.145 4.118 C 326.362 3.950,323.060 3.130,322.533 2.973 C 322.245 2.888,321.734 2.775,321.397 2.722 C 321.061 2.669,320.590 2.582,320.349 2.527 C 319.725 2.385,318.101 2.125,315.983 1.828 C 312.571 1.350,311.922 1.291,308.297 1.137 C 306.808 1.074,305.499 0.994,305.388 0.960 C 305.278 0.925,305.160 0.925,305.126 0.958 M76.145 1.116 C 76.104 1.155,75.381 1.239,74.539 1.301 C 72.968 1.417,72.347 1.481,70.830 1.682 C 70.349 1.746,69.799 1.818,69.607 1.842 C 69.415 1.866,68.786 1.968,68.210 2.069 C 67.633 2.170,66.926 2.290,66.638 2.334 C 66.349 2.379,65.721 2.500,65.240 2.602 C 64.760 2.705,64.170 2.824,63.930 2.868 C 63.364 2.971,62.030 3.261,61.528 3.392 C 61.312 3.448,60.998 3.525,60.829 3.562 C 60.661 3.600,60.209 3.716,59.825 3.819 C 59.441 3.923,59.048 4.018,58.952 4.030 C 58.856 4.043,58.286 4.238,57.686 4.464 C 57.085 4.690,56.594 4.830,56.594 4.774 C 56.594 4.719,56.476 4.771,56.332 4.891 C 56.188 5.010,56.070 5.050,56.070 4.978 C 56.070 4.907,55.952 4.946,55.808 5.066 C 55.664 5.185,55.546 5.224,55.546 5.153 C 55.546 5.081,55.428 5.121,55.284 5.240 C 55.140 5.360,55.022 5.399,55.022 5.328 C 55.022 5.256,54.924 5.275,54.803 5.371 C 54.683 5.466,54.271 5.638,53.886 5.754 C 53.502 5.869,52.991 6.047,52.751 6.149 C 52.511 6.251,52.118 6.414,51.878 6.510 C 49.819 7.333,49.690 7.392,46.288 9.081 C 42.013 11.204,37.354 13.969,35.858 15.274 C 35.486 15.598,35.212 15.807,34.585 16.245 C 34.249 16.480,33.895 16.733,33.799 16.809 C 33.703 16.884,33.145 17.321,32.559 17.779 C 31.973 18.237,31.376 18.728,31.231 18.869 C 31.087 19.011,30.545 19.480,30.026 19.912 C 28.983 20.780,22.625 27.097,21.659 28.225 C 21.323 28.617,20.773 29.274,20.437 29.685 C 20.100 30.096,19.532 30.757,19.172 31.155 C 18.813 31.552,18.519 31.931,18.517 31.996 C 18.516 32.061,18.415 32.219,18.293 32.346 C 18.171 32.473,17.760 33.009,17.379 33.537 C 16.998 34.066,16.548 34.650,16.378 34.836 C 16.209 35.023,16.070 35.233,16.070 35.304 C 16.070 35.375,15.971 35.537,15.849 35.664 C 15.559 35.967,13.799 38.584,13.799 38.712 C 13.799 38.766,13.622 39.057,13.406 39.358 C 12.967 39.969,12.726 40.365,12.323 41.135 C 12.173 41.424,11.774 42.131,11.438 42.707 C 10.409 44.469,8.565 48.385,7.778 50.480 C 7.615 50.913,7.378 51.502,7.250 51.790 C 7.122 52.079,6.882 52.747,6.717 53.275 C 6.552 53.803,6.339 54.334,6.244 54.454 C 6.149 54.574,6.119 54.672,6.177 54.672 C 6.235 54.672,6.115 55.123,5.909 55.673 C 5.703 56.223,5.466 56.950,5.383 57.288 C 5.299 57.627,5.196 58.022,5.154 58.166 C 5.112 58.310,4.919 59.057,4.726 59.825 C 3.781 63.579,3.341 66.009,3.037 69.170 C 2.986 69.699,2.886 70.525,2.815 71.006 C 2.427 73.633,2.470 85.272,2.873 86.496 C 2.914 86.622,2.988 87.197,3.038 87.773 C 3.229 90.010,3.626 92.584,4.021 94.148 C 4.106 94.485,4.217 94.996,4.267 95.284 C 4.317 95.572,4.522 96.437,4.723 97.205 C 4.925 97.974,5.127 98.794,5.174 99.027 C 5.220 99.261,5.298 99.516,5.347 99.594 C 5.395 99.673,5.461 99.875,5.494 100.043 C 5.571 100.444,6.768 104.090,6.970 104.541 C 7.665 106.090,7.860 106.570,7.860 106.725 C 7.860 106.824,7.934 107.041,8.024 107.208 C 8.114 107.374,8.400 107.983,8.660 108.559 C 9.818 111.126,11.185 113.783,12.075 115.197 C 12.317 115.581,12.667 116.168,12.851 116.501 C 13.227 117.176,15.560 120.737,15.716 120.873 C 15.772 120.921,16.246 121.550,16.770 122.271 C 17.295 122.991,17.804 123.667,17.901 123.771 C 17.999 123.876,18.275 124.225,18.515 124.545 C 18.755 124.866,19.109 125.301,19.301 125.513 C 19.493 125.724,20.004 126.319,20.435 126.835 C 21.439 128.036,27.222 133.816,28.452 134.847 C 28.967 135.279,29.528 135.751,29.699 135.895 C 29.870 136.039,30.259 136.354,30.564 136.594 C 30.868 136.834,31.406 137.269,31.759 137.560 C 32.882 138.486,34.390 139.563,34.563 139.563 C 34.655 139.563,34.757 139.627,34.789 139.704 C 34.857 139.870,36.428 140.961,36.598 140.961 C 36.662 140.961,36.956 141.138,37.251 141.354 C 38.078 141.960,39.492 142.734,42.445 144.194 C 44.994 145.454,45.572 145.724,46.638 146.153 C 46.878 146.250,47.271 146.415,47.511 146.521 C 48.266 146.854,52.364 148.164,53.362 148.391 C 53.459 148.413,53.891 148.527,54.322 148.644 C 54.754 148.762,55.226 148.886,55.370 148.922 C 55.515 148.957,55.908 149.054,56.245 149.137 C 56.581 149.220,56.915 149.298,56.988 149.309 C 57.330 149.362,58.527 149.552,59.476 149.702 C 60.052 149.794,60.752 149.905,61.030 149.949 C 61.308 149.994,62.133 150.081,62.864 150.144 C 63.594 150.207,64.428 150.284,64.716 150.314 C 65.363 150.382,73.725 150.373,74.635 150.304 C 76.018 150.199,78.187 150.005,78.690 149.942 C 78.978 149.906,79.631 149.831,80.140 149.774 C 80.649 149.717,81.239 149.636,81.450 149.593 C 81.661 149.550,82.306 149.440,82.882 149.350 C 83.459 149.260,84.127 149.144,84.367 149.092 C 84.607 149.041,84.987 148.962,85.210 148.917 C 85.434 148.872,85.749 148.796,85.909 148.748 C 86.070 148.700,86.397 148.622,86.638 148.575 C 86.878 148.528,87.271 148.442,87.511 148.384 C 87.751 148.326,88.128 148.242,88.349 148.196 C 88.570 148.150,89.110 147.990,89.549 147.841 C 89.989 147.692,90.509 147.539,90.705 147.501 C 91.340 147.379,92.832 146.858,93.057 146.680 C 93.177 146.585,93.275 146.566,93.275 146.638 C 93.275 146.709,93.373 146.690,93.493 146.596 C 93.614 146.501,93.944 146.368,94.229 146.300 C 96.379 145.784,107.084 139.868,107.394 139.023 C 107.426 138.936,107.564 138.865,107.700 138.865 C 107.836 138.865,107.948 138.786,107.948 138.690 C 107.948 138.594,108.066 138.515,108.210 138.515 C 108.354 138.515,108.472 138.455,108.472 138.382 C 108.472 138.309,108.622 138.171,108.807 138.076 C 108.991 137.982,109.791 137.567,110.586 137.156 C 111.380 136.744,112.153 136.383,112.303 136.354 C 112.453 136.324,112.864 136.241,113.216 136.169 C 114.391 135.926,115.840 136.749,116.769 138.185 C 117.597 139.465,118.647 141.485,118.485 141.485 C 118.430 141.485,118.469 141.585,118.571 141.708 C 118.673 141.832,118.797 142.126,118.847 142.364 C 118.897 142.601,119.053 143.227,119.194 143.755 C 120.089 147.102,120.195 157.644,119.394 163.755 C 119.356 164.044,119.278 164.751,119.221 165.328 C 119.020 167.330,118.285 172.551,118.150 172.926 C 118.098 173.070,117.941 173.856,117.800 174.672 C 117.660 175.489,117.473 176.393,117.385 176.681 C 117.296 176.969,117.188 177.441,117.144 177.729 C 117.075 178.179,116.946 178.769,116.579 180.306 C 116.539 180.474,116.467 180.769,116.419 180.961 C 116.224 181.740,116.136 182.114,116.062 182.464 C 116.020 182.666,115.870 183.157,115.729 183.556 C 115.589 183.954,115.511 184.279,115.556 184.279 C 115.601 184.279,115.523 184.555,115.382 184.891 C 115.242 185.227,115.158 185.502,115.197 185.502 C 115.235 185.502,115.151 185.777,115.011 186.114 C 114.870 186.450,114.792 186.725,114.837 186.725 C 114.882 186.725,114.727 187.236,114.491 187.860 C 114.256 188.485,114.112 188.996,114.171 188.996 C 114.230 188.996,114.181 189.114,114.061 189.258 C 113.942 189.402,113.902 189.520,113.974 189.520 C 114.045 189.520,114.006 189.638,113.886 189.782 C 113.767 189.926,113.728 190.044,113.799 190.044 C 113.871 190.044,113.831 190.162,113.712 190.306 C 113.592 190.450,113.553 190.568,113.624 190.568 C 113.696 190.568,113.657 190.686,113.537 190.830 C 113.418 190.974,113.378 191.092,113.450 191.092 C 113.521 191.092,113.482 191.210,113.362 191.354 C 113.243 191.498,113.204 191.616,113.275 191.616 C 113.347 191.616,113.327 191.714,113.232 191.834 C 113.137 191.954,112.964 192.367,112.848 192.751 C 112.732 193.135,112.591 193.568,112.535 193.712 C 112.478 193.856,112.419 194.013,112.402 194.061 C 112.386 194.109,112.281 194.370,112.169 194.640 C 112.057 194.911,111.965 195.206,111.965 195.298 C 111.965 195.389,111.893 195.600,111.805 195.767 C 111.575 196.203,111.165 197.171,110.828 198.079 C 110.337 199.397,109.658 201.031,108.804 202.952 C 108.119 204.490,103.357 213.920,102.884 214.672 C 102.794 214.817,102.461 215.393,102.146 215.954 C 101.830 216.515,101.435 217.183,101.267 217.439 C 101.099 217.695,100.875 218.120,100.769 218.384 C 100.664 218.648,100.506 218.865,100.420 218.865 C 100.333 218.865,100.262 218.939,100.262 219.031 C 100.262 219.122,100.026 219.546,99.738 219.973 C 99.450 220.400,99.214 220.809,99.214 220.882 C 99.214 220.955,99.017 221.273,98.777 221.588 C 98.537 221.902,98.341 222.244,98.341 222.346 C 98.341 222.449,98.262 222.533,98.166 222.533 C 98.070 222.533,97.991 222.610,97.991 222.704 C 97.991 222.798,97.264 223.946,96.376 225.256 C 95.487 226.566,94.681 227.762,94.585 227.914 C 94.489 228.066,94.348 228.273,94.271 228.375 C 94.195 228.476,93.821 228.991,93.441 229.520 C 93.061 230.048,92.691 230.559,92.618 230.655 C 92.546 230.751,92.336 231.063,92.152 231.349 C 91.969 231.635,91.752 231.949,91.670 232.048 C 91.220 232.592,90.888 233.023,90.655 233.366 C 90.511 233.578,90.139 234.037,89.829 234.387 C 89.519 234.736,89.264 235.069,89.262 235.126 C 89.259 235.183,89.120 235.389,88.952 235.583 C 88.784 235.777,88.450 236.193,88.210 236.507 C 87.969 236.820,87.655 237.218,87.511 237.391 C 87.367 237.563,87.013 237.997,86.725 238.356 C 86.437 238.714,86.044 239.188,85.852 239.408 C 85.659 239.628,85.227 240.135,84.891 240.533 C 84.555 240.932,84.083 241.475,83.843 241.739 C 83.603 242.004,82.895 242.799,82.271 243.507 C 80.779 245.197,73.279 252.699,71.633 254.148 C 70.923 254.773,70.131 255.480,69.872 255.721 C 69.613 255.961,69.063 256.432,68.650 256.769 C 67.783 257.475,67.037 258.106,66.480 258.603 C 66.265 258.795,65.829 259.148,65.510 259.389 C 65.192 259.629,64.790 259.948,64.617 260.098 C 64.443 260.248,64.094 260.523,63.840 260.710 C 63.586 260.896,63.232 261.171,63.054 261.321 C 62.875 261.471,62.522 261.746,62.268 261.932 C 62.014 262.118,61.662 262.389,61.487 262.533 C 61.311 262.677,60.994 262.913,60.781 263.057 C 60.568 263.201,60.305 263.399,60.197 263.498 C 60.089 263.596,59.489 264.021,58.865 264.441 C 57.870 265.111,57.252 265.566,56.470 266.204 C 56.354 266.298,56.184 266.376,56.092 266.376 C 56.000 266.376,55.898 266.436,55.866 266.509 C 55.834 266.583,55.061 267.131,54.148 267.727 C 53.236 268.324,52.394 268.893,52.278 268.991 C 52.162 269.090,52.014 269.170,51.950 269.170 C 51.885 269.170,51.449 269.445,50.981 269.782 C 50.513 270.118,50.081 270.393,50.021 270.393 C 49.961 270.393,49.470 270.693,48.929 271.061 C 48.389 271.428,47.397 272.027,46.725 272.392 C 46.052 272.756,45.384 273.152,45.240 273.270 C 45.096 273.389,44.742 273.605,44.454 273.751 C 44.166 273.897,43.537 274.236,43.057 274.506 C 39.662 276.408,32.329 280.067,29.258 281.392 C 28.777 281.599,28.129 281.881,27.817 282.020 C 26.674 282.525,24.005 283.654,23.450 283.867 C 22.347 284.289,21.259 284.738,20.919 284.911 C 20.753 284.996,20.517 285.068,20.395 285.071 C 20.274 285.075,19.860 285.229,19.476 285.415 C 19.092 285.600,18.640 285.755,18.472 285.758 C 18.184 285.764,18.166 286.411,18.166 296.846 C 18.166 307.896,18.198 308.510,18.740 307.967 C 18.847 307.860,19.056 307.772,19.205 307.772 C 19.354 307.771,19.687 307.661,19.945 307.526 C 20.202 307.392,20.653 307.229,20.947 307.165 C 21.241 307.100,21.526 306.975,21.580 306.886 C 21.635 306.797,21.813 306.722,21.975 306.719 C 22.138 306.716,22.585 306.561,22.969 306.376 C 23.354 306.190,23.767 306.035,23.889 306.032 C 24.010 306.029,24.246 305.954,24.413 305.866 C 25.064 305.521,26.382 304.978,26.566 304.978 C 26.672 304.978,27.046 304.852,27.397 304.698 C 27.748 304.544,28.192 304.358,28.384 304.285 C 28.576 304.212,28.950 304.062,29.214 303.954 C 29.478 303.845,29.871 303.687,30.087 303.604 C 30.303 303.521,30.697 303.364,30.961 303.255 C 31.225 303.146,31.618 302.989,31.834 302.906 C 32.050 302.823,32.738 302.537,33.362 302.271 C 33.987 302.004,34.694 301.709,34.934 301.614 C 35.175 301.519,35.580 301.334,35.835 301.201 C 36.090 301.069,36.382 300.961,36.485 300.961 C 36.588 300.961,37.126 300.754,37.681 300.501 C 38.684 300.043,39.449 299.707,40.786 299.137 C 41.170 298.973,41.760 298.716,42.096 298.566 C 42.432 298.416,43.022 298.158,43.406 297.993 C 43.790 297.828,44.459 297.530,44.891 297.331 C 45.323 297.132,46.227 296.716,46.900 296.407 C 52.120 294.008,52.908 293.629,58.865 290.647 C 64.061 288.047,66.115 286.990,68.559 285.661 C 69.135 285.348,69.921 284.926,70.306 284.724 C 70.690 284.522,71.397 284.127,71.878 283.846 C 72.358 283.564,73.223 283.087,73.799 282.786 C 74.376 282.484,74.965 282.133,75.109 282.004 C 75.254 281.876,75.568 281.683,75.808 281.575 C 76.048 281.468,76.559 281.189,76.943 280.955 C 77.328 280.722,77.760 280.476,77.904 280.409 C 78.048 280.342,78.480 280.087,78.865 279.842 C 79.951 279.148,80.235 278.979,80.611 278.804 C 80.803 278.714,81.371 278.357,81.874 278.010 C 82.376 277.664,82.831 277.380,82.885 277.380 C 82.975 277.380,84.892 276.190,85.337 275.858 C 85.702 275.585,86.211 275.276,86.769 274.988 C 87.081 274.827,87.336 274.631,87.336 274.553 C 87.336 274.475,87.410 274.410,87.501 274.410 C 87.633 274.410,92.368 271.311,93.464 270.508 C 93.615 270.397,93.859 270.227,94.005 270.131 C 95.347 269.249,95.830 268.907,96.133 268.625 C 96.327 268.445,96.537 268.297,96.600 268.297 C 96.663 268.297,96.943 268.101,97.222 267.860 C 97.501 267.620,97.783 267.424,97.848 267.424 C 97.913 267.424,98.070 267.322,98.197 267.199 C 98.324 267.075,98.803 266.723,99.261 266.416 C 99.720 266.109,100.191 265.777,100.309 265.677 C 100.787 265.273,101.298 264.877,101.659 264.629 C 101.869 264.485,102.184 264.249,102.358 264.105 C 102.532 263.961,102.851 263.725,103.066 263.581 C 103.281 263.437,103.789 263.044,104.194 262.707 C 104.600 262.371,105.144 261.944,105.403 261.758 C 105.662 261.571,106.046 261.276,106.256 261.102 C 106.875 260.588,107.365 260.198,107.857 259.825 C 108.111 259.633,108.454 259.358,108.619 259.214 C 108.785 259.070,109.192 258.741,109.525 258.484 C 109.858 258.227,110.338 257.834,110.592 257.611 C 110.845 257.388,111.388 256.930,111.798 256.594 C 112.208 256.258,112.723 255.825,112.942 255.633 C 113.161 255.441,113.751 254.930,114.254 254.498 C 114.757 254.066,115.416 253.476,115.719 253.188 C 116.022 252.900,116.845 252.153,117.549 251.528 C 121.615 247.917,126.824 242.715,130.480 238.614 C 131.105 237.914,131.840 237.094,132.113 236.793 C 132.387 236.491,132.937 235.865,133.336 235.400 C 133.735 234.936,134.218 234.376,134.410 234.155 C 134.603 233.934,134.996 233.460,135.284 233.102 C 135.756 232.515,136.156 232.040,136.828 231.266 C 136.953 231.122,137.325 230.653,137.654 230.223 C 137.984 229.793,138.332 229.349,138.428 229.238 C 138.524 229.126,138.755 228.824,138.941 228.567 C 139.127 228.310,139.402 227.955,139.552 227.778 C 139.703 227.601,139.943 227.284,140.087 227.074 C 140.231 226.864,140.467 226.550,140.611 226.376 C 140.755 226.201,140.991 225.887,141.135 225.677 C 141.279 225.467,141.544 225.125,141.724 224.918 C 141.903 224.711,142.249 224.227,142.492 223.843 C 142.735 223.459,142.991 223.105,143.060 223.057 C 143.167 222.983,144.095 221.681,144.849 220.548 C 144.968 220.368,145.321 219.882,145.633 219.466 C 145.945 219.051,146.201 218.628,146.201 218.526 C 146.201 218.424,146.279 218.341,146.376 218.341 C 146.472 218.341,146.550 218.259,146.550 218.159 C 146.550 218.059,146.707 217.808,146.899 217.602 C 147.092 217.396,147.347 217.006,147.466 216.736 C 147.586 216.466,147.743 216.245,147.816 216.245 C 147.888 216.245,147.948 216.127,147.948 215.983 C 147.948 215.838,148.026 215.721,148.122 215.721 C 148.218 215.721,148.297 215.639,148.297 215.538 C 148.297 215.438,148.376 215.261,148.472 215.145 C 148.776 214.779,149.869 213.113,149.869 213.015 C 149.869 212.964,150.183 212.461,150.568 211.898 C 150.952 211.335,151.266 210.813,151.266 210.738 C 151.266 210.662,151.463 210.343,151.703 210.028 C 151.943 209.713,152.140 209.390,152.140 209.309 C 152.140 209.228,152.403 208.763,152.724 208.276 C 153.335 207.347,153.680 206.744,155.802 202.882 C 157.119 200.485,161.327 191.957,162.265 189.782 C 162.472 189.301,162.753 188.652,162.888 188.338 C 163.296 187.395,163.607 186.667,163.839 186.114 C 163.959 185.825,164.128 185.453,164.213 185.286 C 164.297 185.119,164.367 184.902,164.367 184.804 C 164.367 184.706,164.533 184.253,164.736 183.797 C 165.498 182.092,165.628 181.785,165.669 181.594 C 165.709 181.409,165.775 181.217,166.055 180.480 C 166.119 180.312,166.184 180.135,166.200 180.087 C 166.217 180.039,166.322 179.779,166.434 179.508 C 166.546 179.238,166.638 178.917,166.638 178.795 C 166.638 178.673,166.697 178.515,166.769 178.443 C 166.841 178.370,166.906 178.259,166.915 178.195 C 166.923 178.131,166.977 177.961,167.035 177.817 C 167.235 177.317,169.126 171.614,169.178 171.354 C 169.207 171.210,169.243 171.092,169.258 171.092 C 169.272 171.092,169.311 170.974,169.343 170.830 C 169.376 170.686,169.523 170.234,169.671 169.825 C 169.820 169.417,169.909 169.083,169.870 169.083 C 169.831 169.083,169.914 168.808,170.055 168.472 C 170.195 168.135,170.274 167.860,170.230 167.860 C 170.185 167.860,170.264 167.585,170.404 167.249 C 170.545 166.913,170.617 166.638,170.564 166.638 C 170.511 166.638,170.546 166.493,170.641 166.315 C 170.735 166.138,170.852 165.804,170.900 165.573 C 170.947 165.342,171.027 164.996,171.076 164.803 C 172.281 160.085,172.548 158.997,172.743 157.991 C 172.818 157.607,172.925 157.175,172.981 157.031 C 173.037 156.886,173.125 156.493,173.176 156.157 C 173.257 155.622,173.864 152.498,174.076 151.528 C 174.197 150.971,174.304 150.358,174.411 149.607 C 174.466 149.223,174.622 148.279,174.758 147.511 C 174.894 146.742,175.060 145.721,175.127 145.240 C 175.195 144.760,175.267 144.249,175.289 144.105 C 175.311 143.961,175.382 143.410,175.447 142.882 C 175.512 142.354,175.638 141.399,175.727 140.761 C 176.032 138.571,176.479 133.748,176.800 129.170 C 177.156 124.104,177.071 105.625,176.685 104.105 C 176.649 103.961,176.566 103.057,176.501 102.096 C 176.364 100.057,176.318 99.542,176.177 98.399 C 176.119 97.935,176.032 97.162,175.983 96.681 C 175.857 95.461,175.763 94.757,175.361 92.056 C 175.168 90.757,174.982 89.498,174.947 89.258 C 174.912 89.017,174.838 88.624,174.783 88.384 C 174.728 88.144,174.649 87.712,174.607 87.424 C 174.566 87.135,174.370 86.114,174.171 85.153 C 173.973 84.192,173.761 83.092,173.700 82.707 C 173.640 82.323,173.562 81.963,173.527 81.907 C 173.493 81.851,173.423 81.569,173.373 81.281 C 173.265 80.667,172.364 77.135,171.888 75.459 C 171.765 75.026,171.631 74.483,171.588 74.252 C 171.546 74.021,171.441 73.700,171.354 73.537 C 171.267 73.375,171.160 73.053,171.116 72.822 C 171.043 72.438,169.384 67.336,169.133 66.725 C 169.074 66.581,169.012 66.424,168.996 66.376 C 168.980 66.328,168.875 66.067,168.763 65.796 C 168.651 65.526,168.559 65.230,168.559 65.139 C 168.559 65.048,168.490 64.837,168.405 64.670 C 168.260 64.386,168.113 64.038,167.686 62.969 C 167.439 62.352,167.150 61.658,166.886 61.048 C 166.761 60.760,166.492 60.131,166.287 59.651 C 166.082 59.170,165.726 58.384,165.496 57.904 C 165.265 57.424,164.721 56.284,164.287 55.371 C 163.602 53.933,162.883 52.583,161.623 50.366 C 161.451 50.063,161.087 49.395,160.815 48.881 C 160.543 48.368,160.012 47.497,159.636 46.945 C 159.260 46.394,158.952 45.908,158.952 45.864 C 158.952 45.774,156.771 42.504,156.417 42.064 C 156.287 41.902,156.038 41.548,155.864 41.278 C 155.536 40.766,155.475 40.683,154.975 40.060 C 154.809 39.853,154.555 39.511,154.410 39.301 C 154.266 39.091,154.011 38.757,153.843 38.560 C 153.675 38.362,153.535 38.153,153.533 38.096 C 153.531 38.038,153.275 37.708,152.965 37.363 C 152.655 37.017,152.205 36.474,151.965 36.156 C 151.568 35.630,151.127 35.106,150.131 33.981 C 149.939 33.764,149.271 33.008,148.646 32.302 C 147.226 30.696,141.776 25.243,140.192 23.843 C 139.540 23.266,138.788 22.598,138.520 22.358 C 138.253 22.118,137.737 21.686,137.374 21.397 C 137.010 21.109,136.528 20.716,136.302 20.524 C 136.077 20.332,135.691 20.017,135.447 19.825 C 135.202 19.633,134.750 19.260,134.444 18.996 C 134.137 18.731,133.572 18.301,133.188 18.039 C 132.803 17.776,132.167 17.305,131.772 16.991 C 131.378 16.676,130.972 16.419,130.870 16.419 C 130.768 16.419,130.658 16.360,130.626 16.288 C 130.545 16.105,127.339 13.974,127.145 13.974 C 127.058 13.974,126.987 13.909,126.987 13.830 C 126.987 13.751,126.653 13.511,126.245 13.297 C 125.836 13.082,125.266 12.756,124.978 12.572 C 124.690 12.389,124.218 12.119,123.930 11.973 C 123.642 11.826,122.934 11.434,122.358 11.100 C 120.838 10.220,117.245 8.467,115.197 7.606 C 114.908 7.484,114.437 7.285,114.148 7.163 C 113.860 7.040,113.467 6.880,113.275 6.807 C 113.083 6.733,112.639 6.547,112.288 6.393 C 111.937 6.239,111.540 6.114,111.406 6.114 C 111.272 6.114,111.087 6.043,110.996 5.956 C 110.855 5.823,107.682 4.742,107.162 4.650 C 107.066 4.633,106.889 4.558,106.769 4.483 C 106.648 4.408,106.550 4.386,106.550 4.435 C 106.550 4.484,106.275 4.409,105.939 4.268 C 105.603 4.128,105.328 4.050,105.328 4.095 C 105.328 4.140,105.002 4.062,104.604 3.921 C 104.205 3.781,103.714 3.631,103.512 3.589 C 103.310 3.546,102.948 3.461,102.707 3.401 C 102.018 3.226,100.747 2.953,100.175 2.856 C 99.886 2.808,99.336 2.694,98.952 2.604 C 98.254 2.439,95.477 1.970,94.323 1.822 C 93.987 1.779,93.515 1.707,93.275 1.661 C 93.035 1.616,92.321 1.532,91.688 1.476 C 91.055 1.419,90.308 1.334,90.028 1.286 C 89.395 1.179,76.247 1.017,76.145 1.116 " stroke="none" fill="#ec2c34" fill-rule="evenodd"></path><path id="path1" d="" stroke="none" fill="#ec3434" fill-rule="evenodd"></path><path id="path2" d="M81.446 1.002 C 81.906 1.038,82.613 1.038,83.018 1.001 C 83.424 0.964,83.048 0.935,82.183 0.935 C 81.319 0.936,80.987 0.966,81.446 1.002 M302.931 1.002 C 303.390 1.038,304.098 1.038,304.503 1.001 C 304.908 0.964,304.533 0.935,303.668 0.935 C 302.803 0.936,302.472 0.966,302.931 1.002 M25.498 24.061 L 24.017 25.590 25.546 24.109 C 26.965 22.733,27.154 22.533,27.027 22.533 C 27.001 22.533,26.313 23.221,25.498 24.061 M247.157 24.061 L 246.026 25.240 247.205 24.110 C 248.300 23.060,248.464 22.882,248.336 22.882 C 248.309 22.882,247.778 23.413,247.157 24.061 M142.183 25.732 C 142.183 25.762,142.439 26.017,142.751 26.299 L 143.319 26.812 142.806 26.245 C 142.328 25.715,142.183 25.597,142.183 25.732 M365.939 27.860 C 366.558 28.485,367.103 28.996,367.151 28.996 C 367.200 28.996,366.732 28.485,366.114 27.860 C 365.495 27.236,364.949 26.725,364.901 26.725 C 364.853 26.725,365.320 27.236,365.939 27.860 M2.489 75.197 C 2.491 75.581,2.527 75.717,2.569 75.500 C 2.611 75.283,2.609 74.968,2.565 74.801 C 2.522 74.634,2.488 74.812,2.489 75.197 M2.486 81.747 C 2.486 82.083,2.522 82.221,2.566 82.052 C 2.610 81.884,2.610 81.609,2.566 81.441 C 2.522 81.273,2.486 81.410,2.486 81.747 M176.987 110.306 C 176.989 110.690,177.025 110.827,177.067 110.609 C 177.109 110.392,177.107 110.078,177.063 109.911 C 177.020 109.744,176.985 109.921,176.987 110.306 M398.653 112.576 C 398.654 113.057,398.688 113.233,398.728 112.967 C 398.768 112.702,398.767 112.309,398.726 112.094 C 398.684 111.879,398.651 112.096,398.653 112.576 M398.655 122.096 C 398.655 122.624,398.688 122.841,398.728 122.576 C 398.768 122.312,398.768 121.880,398.728 121.616 C 398.688 121.352,398.655 121.568,398.655 122.096 M176.991 124.541 C 176.991 124.974,177.025 125.151,177.067 124.934 C 177.108 124.718,177.108 124.365,177.067 124.148 C 177.025 123.932,176.991 124.109,176.991 124.541 M245.852 131.004 C 246.519 131.677,247.104 132.227,247.152 132.227 C 247.200 132.227,246.694 131.677,246.026 131.004 C 245.359 130.332,244.774 129.782,244.726 129.782 C 244.677 129.782,245.184 130.332,245.852 131.004 M24.279 131.092 C 24.898 131.716,25.444 132.227,25.492 132.227 C 25.540 132.227,25.073 131.716,24.454 131.092 C 23.835 130.467,23.290 129.956,23.242 129.956 C 23.193 129.956,23.661 130.467,24.279 131.092 M341.354 149.782 C 341.356 150.166,341.392 150.303,341.434 150.085 C 341.475 149.868,341.474 149.554,341.430 149.387 C 341.386 149.220,341.352 149.397,341.354 149.782 M68.777 150.521 C 69.186 150.558,69.854 150.558,70.262 150.521 C 70.670 150.484,70.336 150.454,69.520 150.454 C 68.703 150.454,68.369 150.484,68.777 150.521 M290.262 150.521 C 290.670 150.558,291.338 150.558,291.747 150.521 C 292.155 150.484,291.821 150.454,291.004 150.454 C 290.188 150.454,289.854 150.484,290.262 150.521 M341.362 154.934 C 341.362 155.463,341.395 155.679,341.435 155.415 C 341.475 155.151,341.475 154.718,341.435 154.454 C 341.395 154.190,341.362 154.406,341.362 154.934 M119.875 155.721 C 119.877 156.201,119.911 156.377,119.951 156.111 C 119.991 155.846,119.990 155.453,119.948 155.238 C 119.907 155.023,119.874 155.240,119.875 155.721 M126.453 242.926 L 125.852 243.581 126.507 242.979 C 127.116 242.419,127.242 242.271,127.109 242.271 C 127.079 242.271,126.785 242.566,126.453 242.926 M345.761 245.284 L 344.017 247.074 345.808 245.331 C 346.793 244.372,347.598 243.566,347.598 243.540 C 347.598 243.414,347.380 243.621,345.761 245.284 M121.912 247.467 L 121.310 248.122 121.965 247.520 C 122.575 246.960,122.700 246.812,122.567 246.812 C 122.538 246.812,122.243 247.107,121.912 247.467 M298.424 249.127 L 296.856 250.742 298.472 249.174 C 299.360 248.311,300.087 247.584,300.087 247.558 C 300.087 247.431,299.881 247.626,298.424 249.127 M74.662 251.223 L 74.148 251.790 74.716 251.277 C 75.245 250.799,75.364 250.655,75.229 250.655 C 75.199 250.655,74.944 250.910,74.662 251.223 " stroke="none" fill="#f02c34" fill-rule="evenodd"></path><path id="path3" d="M81.446 1.002 C 81.906 1.038,82.613 1.038,83.018 1.001 C 83.424 0.964,83.048 0.935,82.183 0.935 C 81.319 0.936,80.987 0.966,81.446 1.002 M302.931 1.002 C 303.390 1.038,304.098 1.038,304.503 1.001 C 304.908 0.964,304.533 0.935,303.668 0.935 C 302.803 0.936,302.472 0.966,302.931 1.002 M25.498 24.061 L 24.017 25.590 25.546 24.109 C 26.965 22.733,27.154 22.533,27.027 22.533 C 27.001 22.533,26.313 23.221,25.498 24.061 M247.157 24.061 L 246.026 25.240 247.205 24.110 C 248.300 23.060,248.464 22.882,248.336 22.882 C 248.309 22.882,247.778 23.413,247.157 24.061 M142.183 25.732 C 142.183 25.762,142.439 26.017,142.751 26.299 L 143.319 26.812 142.806 26.245 C 142.328 25.715,142.183 25.597,142.183 25.732 M365.939 27.860 C 366.558 28.485,367.103 28.996,367.151 28.996 C 367.200 28.996,366.732 28.485,366.114 27.860 C 365.495 27.236,364.949 26.725,364.901 26.725 C 364.853 26.725,365.320 27.236,365.939 27.860 M2.489 75.197 C 2.491 75.581,2.527 75.717,2.569 75.500 C 2.611 75.283,2.609 74.968,2.565 74.801 C 2.522 74.634,2.488 74.812,2.489 75.197 M2.486 81.747 C 2.486 82.083,2.522 82.221,2.566 82.052 C 2.610 81.884,2.610 81.609,2.566 81.441 C 2.522 81.273,2.486 81.410,2.486 81.747 M176.987 110.306 C 176.989 110.690,177.025 110.827,177.067 110.609 C 177.109 110.392,177.107 110.078,177.063 109.911 C 177.020 109.744,176.985 109.921,176.987 110.306 M398.653 112.576 C 398.654 113.057,398.688 113.233,398.728 112.967 C 398.768 112.702,398.767 112.309,398.726 112.094 C 398.684 111.879,398.651 112.096,398.653 112.576 M398.655 122.096 C 398.655 122.624,398.688 122.841,398.728 122.576 C 398.768 122.312,398.768 121.880,398.728 121.616 C 398.688 121.352,398.655 121.568,398.655 122.096 M176.991 124.541 C 176.991 124.974,177.025 125.151,177.067 124.934 C 177.108 124.718,177.108 124.365,177.067 124.148 C 177.025 123.932,176.991 124.109,176.991 124.541 M245.852 131.004 C 246.519 131.677,247.104 132.227,247.152 132.227 C 247.200 132.227,246.694 131.677,246.026 131.004 C 245.359 130.332,244.774 129.782,244.726 129.782 C 244.677 129.782,245.184 130.332,245.852 131.004 M24.279 131.092 C 24.898 131.716,25.444 132.227,25.492 132.227 C 25.540 132.227,25.073 131.716,24.454 131.092 C 23.835 130.467,23.290 129.956,23.242 129.956 C 23.193 129.956,23.661 130.467,24.279 131.092 M341.354 149.782 C 341.356 150.166,341.392 150.303,341.434 150.085 C 341.475 149.868,341.474 149.554,341.430 149.387 C 341.386 149.220,341.352 149.397,341.354 149.782 M68.777 150.521 C 69.186 150.558,69.854 150.558,70.262 150.521 C 70.670 150.484,70.336 150.454,69.520 150.454 C 68.703 150.454,68.369 150.484,68.777 150.521 M290.262 150.521 C 290.670 150.558,291.338 150.558,291.747 150.521 C 292.155 150.484,291.821 150.454,291.004 150.454 C 290.188 150.454,289.854 150.484,290.262 150.521 M341.362 154.934 C 341.362 155.463,341.395 155.679,341.435 155.415 C 341.475 155.151,341.475 154.718,341.435 154.454 C 341.395 154.190,341.362 154.406,341.362 154.934 M119.875 155.721 C 119.877 156.201,119.911 156.377,119.951 156.111 C 119.991 155.846,119.990 155.453,119.948 155.238 C 119.907 155.023,119.874 155.240,119.875 155.721 M126.453 242.926 L 125.852 243.581 126.507 242.979 C 127.116 242.419,127.242 242.271,127.109 242.271 C 127.079 242.271,126.785 242.566,126.453 242.926 M345.761 245.284 L 344.017 247.074 345.808 245.331 C 346.793 244.372,347.598 243.566,347.598 243.540 C 347.598 243.414,347.380 243.621,345.761 245.284 M121.912 247.467 L 121.310 248.122 121.965 247.520 C 122.575 246.960,122.700 246.812,122.567 246.812 C 122.538 246.812,122.243 247.107,121.912 247.467 M298.424 249.127 L 296.856 250.742 298.472 249.174 C 299.360 248.311,300.087 247.584,300.087 247.558 C 300.087 247.431,299.881 247.626,298.424 249.127 M74.662 251.223 L 74.148 251.790 74.716 251.277 C 75.245 250.799,75.364 250.655,75.229 250.655 C 75.199 250.655,74.944 250.910,74.662 251.223 " stroke="none" fill="#f02c34" fill-rule="evenodd"></path><path id="path4" d="M81.446 1.002 C 81.906 1.038,82.613 1.038,83.018 1.001 C 83.424 0.964,83.048 0.935,82.183 0.935 C 81.319 0.936,80.987 0.966,81.446 1.002 M302.931 1.002 C 303.390 1.038,304.098 1.038,304.503 1.001 C 304.908 0.964,304.533 0.935,303.668 0.935 C 302.803 0.936,302.472 0.966,302.931 1.002 M25.498 24.061 L 24.017 25.590 25.546 24.109 C 26.965 22.733,27.154 22.533,27.027 22.533 C 27.001 22.533,26.313 23.221,25.498 24.061 M247.157 24.061 L 246.026 25.240 247.205 24.110 C 248.300 23.060,248.464 22.882,248.336 22.882 C 248.309 22.882,247.778 23.413,247.157 24.061 M142.183 25.732 C 142.183 25.762,142.439 26.017,142.751 26.299 L 143.319 26.812 142.806 26.245 C 142.328 25.715,142.183 25.597,142.183 25.732 M365.939 27.860 C 366.558 28.485,367.103 28.996,367.151 28.996 C 367.200 28.996,366.732 28.485,366.114 27.860 C 365.495 27.236,364.949 26.725,364.901 26.725 C 364.853 26.725,365.320 27.236,365.939 27.860 M2.489 75.197 C 2.491 75.581,2.527 75.717,2.569 75.500 C 2.611 75.283,2.609 74.968,2.565 74.801 C 2.522 74.634,2.488 74.812,2.489 75.197 M2.486 81.747 C 2.486 82.083,2.522 82.221,2.566 82.052 C 2.610 81.884,2.610 81.609,2.566 81.441 C 2.522 81.273,2.486 81.410,2.486 81.747 M176.987 110.306 C 176.989 110.690,177.025 110.827,177.067 110.609 C 177.109 110.392,177.107 110.078,177.063 109.911 C 177.020 109.744,176.985 109.921,176.987 110.306 M398.653 112.576 C 398.654 113.057,398.688 113.233,398.728 112.967 C 398.768 112.702,398.767 112.309,398.726 112.094 C 398.684 111.879,398.651 112.096,398.653 112.576 M398.655 122.096 C 398.655 122.624,398.688 122.841,398.728 122.576 C 398.768 122.312,398.768 121.880,398.728 121.616 C 398.688 121.352,398.655 121.568,398.655 122.096 M176.991 124.541 C 176.991 124.974,177.025 125.151,177.067 124.934 C 177.108 124.718,177.108 124.365,177.067 124.148 C 177.025 123.932,176.991 124.109,176.991 124.541 M245.852 131.004 C 246.519 131.677,247.104 132.227,247.152 132.227 C 247.200 132.227,246.694 131.677,246.026 131.004 C 245.359 130.332,244.774 129.782,244.726 129.782 C 244.677 129.782,245.184 130.332,245.852 131.004 M24.279 131.092 C 24.898 131.716,25.444 132.227,25.492 132.227 C 25.540 132.227,25.073 131.716,24.454 131.092 C 23.835 130.467,23.290 129.956,23.242 129.956 C 23.193 129.956,23.661 130.467,24.279 131.092 M341.354 149.782 C 341.356 150.166,341.392 150.303,341.434 150.085 C 341.475 149.868,341.474 149.554,341.430 149.387 C 341.386 149.220,341.352 149.397,341.354 149.782 M68.777 150.521 C 69.186 150.558,69.854 150.558,70.262 150.521 C 70.670 150.484,70.336 150.454,69.520 150.454 C 68.703 150.454,68.369 150.484,68.777 150.521 M290.262 150.521 C 290.670 150.558,291.338 150.558,291.747 150.521 C 292.155 150.484,291.821 150.454,291.004 150.454 C 290.188 150.454,289.854 150.484,290.262 150.521 M341.362 154.934 C 341.362 155.463,341.395 155.679,341.435 155.415 C 341.475 155.151,341.475 154.718,341.435 154.454 C 341.395 154.190,341.362 154.406,341.362 154.934 M119.875 155.721 C 119.877 156.201,119.911 156.377,119.951 156.111 C 119.991 155.846,119.990 155.453,119.948 155.238 C 119.907 155.023,119.874 155.240,119.875 155.721 M126.453 242.926 L 125.852 243.581 126.507 242.979 C 127.116 242.419,127.242 242.271,127.109 242.271 C 127.079 242.271,126.785 242.566,126.453 242.926 M345.761 245.284 L 344.017 247.074 345.808 245.331 C 346.793 244.372,347.598 243.566,347.598 243.540 C 347.598 243.414,347.380 243.621,345.761 245.284 M121.912 247.467 L 121.310 248.122 121.965 247.520 C 122.575 246.960,122.700 246.812,122.567 246.812 C 122.538 246.812,122.243 247.107,121.912 247.467 M298.424 249.127 L 296.856 250.742 298.472 249.174 C 299.360 248.311,300.087 247.584,300.087 247.558 C 300.087 247.431,299.881 247.626,298.424 249.127 M74.662 251.223 L 74.148 251.790 74.716 251.277 C 75.245 250.799,75.364 250.655,75.229 250.655 C 75.199 250.655,74.944 250.910,74.662 251.223 " stroke="none" fill="#f02c34" fill-rule="evenodd"></path></g></svg>